<svg width="50" height="40" viewBox="0 0 50 40" fill="none" xmlns="http://www.w3.org/2000/svg">
<path d="M26.0833 0.320088C25.7814 0.113515 25.3973 0 25 0C24.6027 0 24.2186 0.113515 23.9167 0.320088L0 16.7201V36.0001C0 37.061 0.526784 38.0784 1.46447 38.8285C2.40215 39.5787 3.67392 40.0001 5 40.0001H18.3333C18.7754 40.0001 19.1993 39.8596 19.5118 39.6096C19.8244 39.3595 20 39.0204 20 38.6668V30.6668C20 29.6059 20.5268 28.5885 21.4645 27.8383C22.4021 27.0882 23.6739 26.6668 25 26.6668C26.3261 26.6668 27.5979 27.0882 28.5355 27.8383C29.4732 28.5885 30 29.6059 30 30.6668V38.6668C30 39.0204 30.1756 39.3595 30.4882 39.6096C30.8007 39.8596 31.2246 40.0001 31.6667 40.0001H45C46.3261 40.0001 47.5979 39.5787 48.5355 38.8285C49.4732 38.0784 50 37.061 50 36.0001V16.7201L26.0833 0.320088Z" fill="#D2D6D9"/>
</svg>
