<svg width="50" height="40" viewBox="0 0 50 40" fill="none" xmlns="http://www.w3.org/2000/svg">
<path fill-rule="evenodd" clip-rule="evenodd" d="M0 4.28571C0 3.14907 0.564412 2.05898 1.56907 1.25526C2.57373 0.451529 3.93634 0 5.35714 0L30.3571 0C31.7779 0 33.1406 0.451529 34.1452 1.25526C35.1499 2.05898 35.7143 3.14907 35.7143 4.28571V9.82571C34.2652 10.7543 33.3249 12.0978 33.0929 13.5714H20.5357C19.4804 13.5714 18.4355 13.7377 17.4606 14.0608C16.4856 14.3838 15.5998 14.8574 14.8536 15.4543C14.1074 16.0513 13.5155 16.7599 13.1117 17.5399C12.7078 18.3198 12.5 19.1558 12.5 20C12.5 20.8442 12.7078 21.6802 13.1117 22.4601C13.5155 23.2401 14.1074 23.9487 14.8536 24.5457C15.5998 25.1426 16.4856 25.6162 17.4606 25.9392C18.4355 26.2623 19.4804 26.4286 20.5357 26.4286H33.0929C33.3249 27.9022 34.2652 29.2457 35.7143 30.1743V35.7143C35.7143 36.8509 35.1499 37.941 34.1452 38.7447C33.1406 39.5485 31.7779 40 30.3571 40H5.35714C3.93634 40 2.57373 39.5485 1.56907 38.7447C0.564412 37.941 0 36.8509 0 35.7143L0 4.28571ZM39.1536 12.3057C38.6641 12.4679 38.2457 12.7426 37.9513 13.095C37.657 13.4475 37.4999 13.8618 37.5 14.2857V17.1429H20.5357C19.5885 17.1429 18.6801 17.4439 18.0103 17.9797C17.3406 18.5155 16.9643 19.2422 16.9643 20C16.9643 20.7578 17.3406 21.4845 18.0103 22.0203C18.6801 22.5561 19.5885 22.8571 20.5357 22.8571H37.5V25.7143C37.5005 26.1378 37.6578 26.5518 37.9522 26.9038C38.2465 27.2559 38.6647 27.5302 39.1538 27.6923C39.643 27.8543 40.1812 27.8967 40.7005 27.8142C41.2198 27.7317 41.6968 27.5279 42.0714 27.2286L49.2143 21.5143C49.7159 21.1125 49.9976 20.5679 49.9976 20C49.9976 19.4321 49.7159 18.8875 49.2143 18.4857L42.0714 12.7714C41.6971 12.4717 41.2201 12.2675 40.7008 12.1847C40.1814 12.1018 39.643 12.1439 39.1536 12.3057Z" fill="#D2D6D9"/>
</svg>
