<svg width="21" height="24" viewBox="0 0 21 24" fill="none" xmlns="http://www.w3.org/2000/svg">
<path d="M16.0848 10.5C16.5045 10.625 16.904 10.7946 17.2835 11.0089C17.6629 11.2232 18.0603 11.5491 18.4754 11.9866C18.8906 12.4241 19.2455 12.9397 19.5402 13.5335C19.8348 14.1272 20.0804 14.8951 20.2768 15.8371C20.4732 16.779 20.5714 17.8348 20.5714 19.0045C20.5714 20.3795 20.125 21.5558 19.2321 22.5335C18.3393 23.5112 17.2634 24 16.0045 24H4.56696C3.30804 24 2.23214 23.5112 1.33929 22.5335C0.446429 21.5558 0 20.3795 0 19.0045C0 17.8348 0.0982143 16.779 0.294643 15.8371C0.491071 14.8951 0.736607 14.1272 1.03125 13.5335C1.32589 12.9397 1.6808 12.4241 2.09598 11.9866C2.51116 11.5491 2.90848 11.2232 3.28795 11.0089C3.66741 10.7946 4.06696 10.625 4.48661 10.5C3.78125 9.38393 3.42857 8.16964 3.42857 6.85714C3.42857 5.92857 3.60937 5.04241 3.97098 4.19866C4.33259 3.35491 4.82143 2.625 5.4375 2.00893C6.05357 1.39286 6.78348 0.904018 7.62723 0.542411C8.47098 0.180804 9.35714 0 10.2857 0C11.2143 0 12.1004 0.180804 12.9442 0.542411C13.7879 0.904018 14.5179 1.39286 15.1339 2.00893C15.75 2.625 16.2388 3.35491 16.6004 4.19866C16.9621 5.04241 17.1429 5.92857 17.1429 6.85714C17.1429 8.16964 16.7902 9.38393 16.0848 10.5ZM10.2857 1.71429C8.86607 1.71429 7.65402 2.21652 6.64955 3.22098C5.64509 4.22545 5.14286 5.4375 5.14286 6.85714C5.14286 8.27679 5.64509 9.48884 6.64955 10.4933C7.65402 11.4978 8.86607 12 10.2857 12C11.7054 12 12.9174 11.4978 13.9219 10.4933C14.9263 9.48884 15.4286 8.27679 15.4286 6.85714C15.4286 5.4375 14.9263 4.22545 13.9219 3.22098C12.9174 2.21652 11.7054 1.71429 10.2857 1.71429ZM16.0045 22.2857C16.7902 22.2857 17.4621 21.9665 18.0201 21.3281C18.5781 20.6897 18.8571 19.9152 18.8571 19.0045C18.8571 16.8705 18.5067 15.1875 17.8058 13.9554C17.1049 12.7232 16.0982 12.0759 14.7857 12.0134C13.4911 13.1473 11.9911 13.7143 10.2857 13.7143C8.58036 13.7143 7.08036 13.1473 5.78571 12.0134C4.47321 12.0759 3.46652 12.7232 2.76562 13.9554C2.06473 15.1875 1.71429 16.8705 1.71429 19.0045C1.71429 19.9152 1.9933 20.6897 2.55134 21.3281C3.10938 21.9665 3.78125 22.2857 4.56696 22.2857H16.0045Z" fill="#5DCEC6"/>
</svg>
