<svg width="50" height="40" viewBox="0 0 50 40" fill="none" xmlns="http://www.w3.org/2000/svg">
<path fill-rule="evenodd" clip-rule="evenodd" d="M0 4.28571C0 3.14907 0.564412 2.05898 1.56907 1.25526C2.57373 0.451529 3.93634 0 5.35714 0L30.3571 0C31.7779 0 33.1406 0.451529 34.1452 1.25526C35.1499 2.05898 35.7143 3.14907 35.7143 4.28571V13.5714H33.8714C33.704 12.5109 33.168 11.5092 32.3245 10.6802C31.481 9.85121 30.3637 9.2281 29.0997 8.88169C27.8356 8.53528 26.4754 8.47946 25.1737 8.72058C23.8719 8.96171 22.6808 9.4901 21.7357 10.2457L14.5929 15.96C13.2538 17.0316 12.5015 18.4848 12.5015 20C12.5015 21.5152 13.2538 22.9684 14.5929 24.04L21.7357 29.7543C22.6808 30.5099 23.8719 31.0383 25.1737 31.2794C26.4754 31.5205 27.8356 31.4647 29.0997 31.1183C30.3637 30.7719 31.481 30.1488 32.3245 29.3198C33.168 28.4908 33.704 27.4891 33.8714 26.4286H35.7143V35.7143C35.7143 36.8509 35.1499 37.941 34.1452 38.7447C33.1406 39.5485 31.7779 40 30.3571 40H17.8571H5.35714C3.93634 40 2.57373 39.5485 1.56907 38.7447C0.564412 37.941 0 36.8509 0 35.7143L0 4.28571ZM27.8107 12.3057C28.3002 12.4679 28.7186 12.7426 29.0129 13.095C29.3073 13.4475 29.4643 13.8618 29.4643 14.2857V17.1429H46.4286C47.3758 17.1429 48.2842 17.4439 48.954 17.9797C49.6237 18.5155 50 19.2422 50 20C50 20.7578 49.6237 21.4845 48.954 22.0203C48.2842 22.5561 47.3758 22.8571 46.4286 22.8571H29.4643V25.7143C29.4638 26.1378 29.3065 26.5518 29.0121 26.9038C28.7178 27.2559 28.2996 27.5302 27.8104 27.6923C27.3213 27.8543 26.7831 27.8967 26.2638 27.8142C25.7445 27.7317 25.2675 27.5279 24.8929 27.2286L17.75 21.5143C17.2484 21.1125 16.9666 20.5679 16.9666 20C16.9666 19.4321 17.2484 18.8875 17.75 18.4857L24.8929 12.7714C25.2672 12.4717 25.7442 12.2675 26.2635 12.1847C26.7829 12.1018 27.3213 12.1439 27.8107 12.3057Z" fill="#D2D6D9"/>
</svg>
