<svg width="50" height="40" viewBox="0 0 50 40" fill="none" xmlns="http://www.w3.org/2000/svg">
<path fill-rule="evenodd" clip-rule="evenodd" d="M15.0751 2.13333C15.8509 0.874667 17.5244 0 19.4584 0H30.5416C32.4756 0 34.1463 0.874667 34.9249 2.13333C36.8174 2.14613 38.2942 2.21227 39.6131 2.60907C41.1875 3.08325 42.5568 3.88909 43.5642 4.9344C44.5811 5.98827 45.0604 7.33867 45.7143 9.1968L47.7703 15.0037L48.5461 16.7979L48.6126 16.8619C51.109 19.3237 49.9204 22.9845 47.543 30.304C46.0302 34.9611 45.2766 37.2885 43.0211 38.6453C40.7657 40 37.6486 40 31.4143 40H18.5857C12.3514 40 9.23427 40 6.97886 38.6453C4.72345 37.2885 3.96703 34.9611 2.45695 30.304C0.0796262 22.9845 -1.10904 19.3237 1.38743 16.8619L1.45393 16.7979L2.22975 15.0037L4.28567 9.1968C4.94234 7.33867 5.42169 5.98613 6.43579 4.93227C7.4436 3.88775 8.81283 3.08266 10.3869 2.60907C11.7058 2.21227 13.1799 2.144 15.0751 2.13333ZM15.0806 5.33973C13.2464 5.35467 12.5093 5.408 11.8998 5.59147C11.0518 5.84679 10.3144 6.28077 9.77181 6.84373C9.28415 7.34933 8.99599 8.05547 8.19246 10.3317L6.61312 14.7883C9.43931 14.4 13.3018 14.4 18.5829 14.4H31.4143C36.6982 14.4 40.5579 14.4 43.3841 14.784L41.8075 10.3275C41.004 8.0512 40.7159 7.34507 40.2282 6.83947C39.6856 6.2765 38.9482 5.84252 38.1002 5.5872C37.4907 5.40373 36.7536 5.3504 34.9194 5.33547C34.526 5.97301 33.9059 6.51162 33.131 6.88883C32.3562 7.26604 31.4583 7.4664 30.5416 7.46667H19.4584C18.542 7.46659 17.6443 7.26655 16.8695 6.88973C16.0947 6.51291 15.4744 5.97688 15.0806 5.33973Z" fill="#D2D6D9"/>
</svg>
